# xmcd
#
# Track frame offsets:
#	150
#	11665
#	23030
#	38640
#	53295
#	69547
#	82225
#	96302
#	110457
#	125695
#
# Disc length: 1855 seconds
#
# Revision: 1
# Processed by: cddbd v1.4PL0 Copyright (c) Steve Scherf et al.
# Submitted via: audiograbber 1.80.04
#
DISCID=7c073d0a
DTITLE=Bobby Terry and Rick Stancil - Songs
DYEAR=1900
DGENRE=Country
TTITLE0=Boys You Gotta Learn To Dance
TTITLE1=Damn Good Drinkin' Song
TTITLE2=She's Easy To Miss
TTITLE3=Laws of Love
TTITLE4=Where Did We Go Wrong
TTITLE5=You're In Love With The Wrong Man
TTITLE6=Paris
TTITLE7=Blue Monday Morning
TTITLE8=Holding  You Like This
TTITLE9=Falling Again
EXTD=
EXTT0=
EXTT1=
EXTT2=
EXTT3=
EXTT4=
EXTT5=
EXTT6=
EXTT7=
EXTT8=
EXTT9=
PLAYORDER=
